<mxfile host="app.diagrams.net" agent="Mozilla/5.0 (Macintosh; Intel Mac OS X 10_15_7) AppleWebKit/537.36 (KHTML, like Gecko) Chrome/137.0.0.0 Safari/537.36" version="27.1.4">
  <diagram name="Page-1" id="HGAGrrJXznEJblz5aoVz">
    <mxGraphModel dx="1381" dy="951" grid="1" gridSize="10" guides="1" tooltips="1" connect="1" arrows="1" fold="1" page="1" pageScale="1" pageWidth="827" pageHeight="1169" math="0" shadow="0">
      <root>
        <mxCell id="0" />
        <mxCell id="1" parent="0" />
        <mxCell id="9cCrsQF_jfUvyCz7kcwi-6" style="edgeStyle=orthogonalEdgeStyle;rounded=0;orthogonalLoop=1;jettySize=auto;html=1;exitX=0.5;exitY=1;exitDx=0;exitDy=0;" edge="1" parent="1" source="9cCrsQF_jfUvyCz7kcwi-4" target="9cCrsQF_jfUvyCz7kcwi-5">
          <mxGeometry relative="1" as="geometry" />
        </mxCell>
        <mxCell id="9cCrsQF_jfUvyCz7kcwi-4" value="Start" style="rounded=1;whiteSpace=wrap;html=1;" vertex="1" parent="1">
          <mxGeometry x="310" y="70" width="120" height="60" as="geometry" />
        </mxCell>
        <mxCell id="9cCrsQF_jfUvyCz7kcwi-8" style="edgeStyle=orthogonalEdgeStyle;rounded=0;orthogonalLoop=1;jettySize=auto;html=1;exitX=0.5;exitY=1;exitDx=0;exitDy=0;" edge="1" parent="1" source="9cCrsQF_jfUvyCz7kcwi-5" target="9cCrsQF_jfUvyCz7kcwi-7">
          <mxGeometry relative="1" as="geometry" />
        </mxCell>
        <mxCell id="9cCrsQF_jfUvyCz7kcwi-5" value="Generate a Random Word" style="rounded=1;whiteSpace=wrap;html=1;" vertex="1" parent="1">
          <mxGeometry x="290" y="190" width="160" height="60" as="geometry" />
        </mxCell>
        <mxCell id="9cCrsQF_jfUvyCz7kcwi-10" style="edgeStyle=orthogonalEdgeStyle;rounded=0;orthogonalLoop=1;jettySize=auto;html=1;exitX=0.5;exitY=1;exitDx=0;exitDy=0;" edge="1" parent="1" source="9cCrsQF_jfUvyCz7kcwi-7" target="9cCrsQF_jfUvyCz7kcwi-9">
          <mxGeometry relative="1" as="geometry" />
        </mxCell>
        <mxCell id="9cCrsQF_jfUvyCz7kcwi-7" value="Generate a variable with same number" style="rounded=1;whiteSpace=wrap;html=1;" vertex="1" parent="1">
          <mxGeometry x="310" y="310" width="120" height="60" as="geometry" />
        </mxCell>
        <mxCell id="9cCrsQF_jfUvyCz7kcwi-15" style="edgeStyle=orthogonalEdgeStyle;rounded=0;orthogonalLoop=1;jettySize=auto;html=1;exitX=0.5;exitY=1;exitDx=0;exitDy=0;entryX=0.5;entryY=0;entryDx=0;entryDy=0;" edge="1" parent="1" source="9cCrsQF_jfUvyCz7kcwi-9" target="9cCrsQF_jfUvyCz7kcwi-12">
          <mxGeometry relative="1" as="geometry" />
        </mxCell>
        <mxCell id="9cCrsQF_jfUvyCz7kcwi-9" value="Ask the user to guess&lt;div&gt;&amp;nbsp;the letter&lt;/div&gt;" style="rounded=1;whiteSpace=wrap;html=1;" vertex="1" parent="1">
          <mxGeometry x="285" y="430" width="170" height="60" as="geometry" />
        </mxCell>
        <mxCell id="9cCrsQF_jfUvyCz7kcwi-34" value="" style="edgeStyle=orthogonalEdgeStyle;rounded=0;orthogonalLoop=1;jettySize=auto;html=1;entryX=0.5;entryY=0;entryDx=0;entryDy=0;" edge="1" parent="1" source="9cCrsQF_jfUvyCz7kcwi-12" target="9cCrsQF_jfUvyCz7kcwi-36">
          <mxGeometry relative="1" as="geometry">
            <mxPoint x="245" y="607.5" as="targetPoint" />
          </mxGeometry>
        </mxCell>
        <mxCell id="9cCrsQF_jfUvyCz7kcwi-41" value="No" style="edgeLabel;html=1;align=center;verticalAlign=middle;resizable=0;points=[];" vertex="1" connectable="0" parent="9cCrsQF_jfUvyCz7kcwi-34">
          <mxGeometry x="-0.4787" y="-2" relative="1" as="geometry">
            <mxPoint as="offset" />
          </mxGeometry>
        </mxCell>
        <mxCell id="9cCrsQF_jfUvyCz7kcwi-49" style="edgeStyle=orthogonalEdgeStyle;rounded=0;orthogonalLoop=1;jettySize=auto;html=1;entryX=0;entryY=0.5;entryDx=0;entryDy=0;" edge="1" parent="1" source="9cCrsQF_jfUvyCz7kcwi-12" target="9cCrsQF_jfUvyCz7kcwi-46">
          <mxGeometry relative="1" as="geometry" />
        </mxCell>
        <mxCell id="9cCrsQF_jfUvyCz7kcwi-51" value="Yes" style="edgeLabel;html=1;align=center;verticalAlign=middle;resizable=0;points=[];" vertex="1" connectable="0" parent="9cCrsQF_jfUvyCz7kcwi-49">
          <mxGeometry x="0.3212" y="-2" relative="1" as="geometry">
            <mxPoint x="-24" y="-2" as="offset" />
          </mxGeometry>
        </mxCell>
        <mxCell id="9cCrsQF_jfUvyCz7kcwi-12" value="Is the&amp;nbsp;&lt;div&gt;guessed letter right&amp;nbsp;&lt;/div&gt;" style="rhombus;whiteSpace=wrap;html=1;" vertex="1" parent="1">
          <mxGeometry x="324" y="552.5" width="90" height="95" as="geometry" />
        </mxCell>
        <mxCell id="9cCrsQF_jfUvyCz7kcwi-22" style="edgeStyle=orthogonalEdgeStyle;rounded=0;orthogonalLoop=1;jettySize=auto;html=1;entryX=1;entryY=0.5;entryDx=0;entryDy=0;" edge="1" parent="1" source="9cCrsQF_jfUvyCz7kcwi-20" target="9cCrsQF_jfUvyCz7kcwi-9">
          <mxGeometry relative="1" as="geometry">
            <mxPoint x="550" y="480" as="targetPoint" />
            <Array as="points">
              <mxPoint x="710" y="460" />
            </Array>
          </mxGeometry>
        </mxCell>
        <mxCell id="9cCrsQF_jfUvyCz7kcwi-23" value="No" style="edgeLabel;html=1;align=center;verticalAlign=middle;resizable=0;points=[];" vertex="1" connectable="0" parent="9cCrsQF_jfUvyCz7kcwi-22">
          <mxGeometry x="-0.4682" relative="1" as="geometry">
            <mxPoint y="10" as="offset" />
          </mxGeometry>
        </mxCell>
        <mxCell id="9cCrsQF_jfUvyCz7kcwi-28" value="" style="edgeStyle=orthogonalEdgeStyle;rounded=0;orthogonalLoop=1;jettySize=auto;html=1;" edge="1" parent="1" source="9cCrsQF_jfUvyCz7kcwi-20" target="9cCrsQF_jfUvyCz7kcwi-27">
          <mxGeometry relative="1" as="geometry">
            <Array as="points">
              <mxPoint x="560" y="790" />
            </Array>
          </mxGeometry>
        </mxCell>
        <mxCell id="9cCrsQF_jfUvyCz7kcwi-42" value="Yes" style="edgeLabel;html=1;align=center;verticalAlign=middle;resizable=0;points=[];" vertex="1" connectable="0" parent="9cCrsQF_jfUvyCz7kcwi-28">
          <mxGeometry x="-0.0489" y="-2" relative="1" as="geometry">
            <mxPoint y="1" as="offset" />
          </mxGeometry>
        </mxCell>
        <mxCell id="9cCrsQF_jfUvyCz7kcwi-20" value="is the word complete" style="rhombus;whiteSpace=wrap;html=1;" vertex="1" parent="1">
          <mxGeometry x="670" y="560" width="80" height="80" as="geometry" />
        </mxCell>
        <mxCell id="9cCrsQF_jfUvyCz7kcwi-31" value="" style="edgeStyle=orthogonalEdgeStyle;rounded=0;orthogonalLoop=1;jettySize=auto;html=1;entryX=1;entryY=0.5;entryDx=0;entryDy=0;" edge="1" parent="1" source="9cCrsQF_jfUvyCz7kcwi-27" target="9cCrsQF_jfUvyCz7kcwi-32">
          <mxGeometry relative="1" as="geometry">
            <mxPoint x="560" y="900" as="targetPoint" />
            <Array as="points">
              <mxPoint x="550" y="1000" />
            </Array>
          </mxGeometry>
        </mxCell>
        <mxCell id="9cCrsQF_jfUvyCz7kcwi-27" value="You Win" style="whiteSpace=wrap;html=1;" vertex="1" parent="1">
          <mxGeometry x="500" y="760" width="120" height="60" as="geometry" />
        </mxCell>
        <mxCell id="9cCrsQF_jfUvyCz7kcwi-32" value="End" style="rounded=1;whiteSpace=wrap;html=1;" vertex="1" parent="1">
          <mxGeometry x="280" y="970" width="120" height="60" as="geometry" />
        </mxCell>
        <mxCell id="9cCrsQF_jfUvyCz7kcwi-38" value="" style="edgeStyle=orthogonalEdgeStyle;rounded=0;orthogonalLoop=1;jettySize=auto;html=1;" edge="1" parent="1" source="9cCrsQF_jfUvyCz7kcwi-36" target="9cCrsQF_jfUvyCz7kcwi-37">
          <mxGeometry relative="1" as="geometry" />
        </mxCell>
        <mxCell id="9cCrsQF_jfUvyCz7kcwi-40" value="No" style="edgeLabel;html=1;align=center;verticalAlign=middle;resizable=0;points=[];" vertex="1" connectable="0" parent="9cCrsQF_jfUvyCz7kcwi-38">
          <mxGeometry x="-0.4829" y="-1" relative="1" as="geometry">
            <mxPoint as="offset" />
          </mxGeometry>
        </mxCell>
        <mxCell id="9cCrsQF_jfUvyCz7kcwi-44" style="edgeStyle=orthogonalEdgeStyle;rounded=0;orthogonalLoop=1;jettySize=auto;html=1;entryX=0;entryY=0.5;entryDx=0;entryDy=0;" edge="1" parent="1" source="9cCrsQF_jfUvyCz7kcwi-36" target="9cCrsQF_jfUvyCz7kcwi-9">
          <mxGeometry relative="1" as="geometry">
            <Array as="points">
              <mxPoint x="80" y="695" />
              <mxPoint x="80" y="460" />
            </Array>
          </mxGeometry>
        </mxCell>
        <mxCell id="9cCrsQF_jfUvyCz7kcwi-45" value="Yes" style="edgeLabel;html=1;align=center;verticalAlign=middle;resizable=0;points=[];" vertex="1" connectable="0" parent="9cCrsQF_jfUvyCz7kcwi-44">
          <mxGeometry x="-0.1745" y="-4" relative="1" as="geometry">
            <mxPoint x="-4" y="37" as="offset" />
          </mxGeometry>
        </mxCell>
        <mxCell id="9cCrsQF_jfUvyCz7kcwi-36" value="Has life" style="rhombus;whiteSpace=wrap;html=1;" vertex="1" parent="1">
          <mxGeometry x="110" y="655" width="80" height="80" as="geometry" />
        </mxCell>
        <mxCell id="9cCrsQF_jfUvyCz7kcwi-39" style="edgeStyle=orthogonalEdgeStyle;rounded=0;orthogonalLoop=1;jettySize=auto;html=1;" edge="1" parent="1" source="9cCrsQF_jfUvyCz7kcwi-37" target="9cCrsQF_jfUvyCz7kcwi-32">
          <mxGeometry relative="1" as="geometry">
            <mxPoint x="560" y="900" as="targetPoint" />
            <Array as="points">
              <mxPoint x="150" y="1000" />
            </Array>
          </mxGeometry>
        </mxCell>
        <mxCell id="9cCrsQF_jfUvyCz7kcwi-37" value="You lose. the word was &quot;&quot;" style="whiteSpace=wrap;html=1;" vertex="1" parent="1">
          <mxGeometry x="90" y="830" width="120" height="60" as="geometry" />
        </mxCell>
        <mxCell id="9cCrsQF_jfUvyCz7kcwi-48" style="edgeStyle=orthogonalEdgeStyle;rounded=0;orthogonalLoop=1;jettySize=auto;html=1;entryX=0;entryY=0.5;entryDx=0;entryDy=0;" edge="1" parent="1" source="9cCrsQF_jfUvyCz7kcwi-46" target="9cCrsQF_jfUvyCz7kcwi-20">
          <mxGeometry relative="1" as="geometry" />
        </mxCell>
        <mxCell id="9cCrsQF_jfUvyCz7kcwi-46" value="Replace the blank with Word" style="rounded=0;whiteSpace=wrap;html=1;" vertex="1" parent="1">
          <mxGeometry x="490" y="570" width="110" height="60" as="geometry" />
        </mxCell>
      </root>
    </mxGraphModel>
  </diagram>
</mxfile>
